<svg xmlns="http://www.w3.org/2000/svg" width="39.215" height="37.147" viewBox="0 0 39.215 37.147">
  <path id="Union_4" data-name="Union 4" d="M19.607,37.115c-.359.006-5.23.07-5.747,0-.536-.073,0-.5.679-1a1.917,1.917,0,0,0,.751-1.251l.255-1.629h8.123l.255,1.63a1.919,1.919,0,0,0,.751,1.25c.678.5,1.214.929.679,1-.18.024-.887.032-1.748.032C21.993,37.147,19.841,37.119,19.607,37.115ZM1.569,31.666A1.569,1.569,0,0,1,0,30.1V7.353A1.569,1.569,0,0,1,1.569,5.784H24.085L22.427,8.137H2.354V26.96H36.862V8.137H30.588L32.75,5.784h4.9a1.569,1.569,0,0,1,1.569,1.569V30.1a1.569,1.569,0,0,1-1.569,1.569ZM10.457,23.1c2.17-.016,2.44-.539,3.148-2.719,1.3-3.439,7.18.9,3.538,2.406a11.969,11.969,0,0,1-4.438.766C10.562,23.551,9.131,23.108,10.457,23.1Zm7.181-3.957c-1.053-.848-1.058-.587.041-1.951L28.811,1.372C29.91.009,31.655-.41,32.709.44s1.015,2.641-.084,4.006L19.536,18.687c-.6.743-.8,1.063-1.021,1.063C18.326,19.75,18.117,19.527,17.637,19.141ZM29.14,1.709a6.05,6.05,0,0,1,.706.623s.191-.813,1.706-1.707a2.244,2.244,0,0,0-.3-.017A2.408,2.408,0,0,0,29.14,1.709Z" transform="translate(0 0)" fill="#fff"/>
</svg>
