<svg xmlns="http://www.w3.org/2000/svg" xmlns:xlink="http://www.w3.org/1999/xlink" width="36.016" height="33.549" viewBox="0 0 36.016 33.549">
  <defs>
    <clipPath id="clip-path">
      <rect id="Rectangle_7" data-name="Rectangle 7" width="36.016" height="33.549" fill="#fff"/>
    </clipPath>
  </defs>
  <g id="Group_96" data-name="Group 96" transform="translate(0 0)">
    <g id="Group_95" data-name="Group 95" transform="translate(0 0)" clip-path="url(#clip-path)">
      <path id="Path_426" data-name="Path 426" d="M738.035,328.036l1.394-1a1.406,1.406,0,0,0,.4-1.837l-.717-1.266a1.407,1.407,0,0,0-1.722-.622l-1.6.607c-.143-.108-.293-.207-.445-.3l-.009-.006c-.064-.039-.129-.076-.194-.112l-.059-.033c-.058-.031-.116-.061-.175-.09l-.088-.042-.081-.039-.3-1.662a1.407,1.407,0,0,0-1.385-1.158h-1.337a1.407,1.407,0,0,0-1.393,1.212l-.225,1.61a5.592,5.592,0,0,0-1.161.707l-1.633-.51a1.406,1.406,0,0,0-1.684.727l-.6,1.234a1.407,1.407,0,0,0,.465,1.773l1.315.909q-.007.142-.007.287c0,.086,0,.172.006.258,0,.03,0,.059.005.089s0,.061.005.091l-1.334,1.068a1.407,1.407,0,0,0-.344,1.794l.64,1.124a1.407,1.407,0,0,0,1.707.625l1.542-.565a5.615,5.615,0,0,0,1.083.645l.3,1.662a1.407,1.407,0,0,0,1.385,1.158h1.266a1.406,1.406,0,0,0,1.389-1.185l.259-1.62c.035-.015.068-.032.1-.048l.072-.033q.09-.044.178-.091t.154-.086l.011-.006a5.678,5.678,0,0,0,.781-.54l1.645.472a1.406,1.406,0,0,0,1.646-.723l.566-1.131a1.407,1.407,0,0,0-.442-1.776l-1.371-.977c0-.069,0-.137,0-.206,0-.085,0-.17-.006-.254,0-.024,0-.048,0-.073s0-.041,0-.062Zm-3.569,2.271a2.347,2.347,0,0,1-.758.619l-.028.014c-.053.027-.107.052-.163.076l-.042.017q-.066.026-.133.05l-.056.019c-.057.018-.115.035-.174.05a2.8,2.8,0,0,1-1.445-.017c-.04-.011-.08-.023-.12-.036l-.067-.023-.1-.039-.1-.043-.09-.042-.078-.04-.072-.04q-.056-.032-.11-.066l-.084-.055-.071-.051-.07-.053-.063-.05c-.039-.032-.077-.065-.113-.1l-.053-.05c-.026-.025-.051-.05-.075-.076a2.81,2.81,0,0,1-.709-1.3c-.009-.039-.018-.077-.025-.116,0-.016-.006-.032-.009-.048-.007-.038-.013-.076-.018-.114,0-.016,0-.033-.006-.049,0-.039-.008-.079-.011-.119,0-.015,0-.029,0-.044,0-.054-.005-.108-.005-.161s0-.1,0-.156l0-.02c0-.047.007-.094.012-.14l0-.013c.006-.049.013-.1.021-.147l0-.009c.008-.049.018-.1.029-.145a2.811,2.811,0,0,1,.733-1.338l.027-.028c.028-.028.058-.056.087-.083l.018-.016q.089-.079.184-.152l.015-.011a2.824,2.824,0,0,1,.321-.207l.026-.015c.035-.019.07-.037.106-.055l.037-.017q.085-.04.172-.074l.073-.027.085-.028c.039-.013.079-.024.118-.035a2.807,2.807,0,0,1,1.494,0l.116.035.068.023.1.038.1.04.1.046.073.038.079.044.068.039c.042.025.084.052.125.08l.06.043.083.061.053.042q.061.05.12.1l.037.036c.031.029.061.059.091.089a2.811,2.811,0,0,1,.711,1.3c.009.039.018.077.025.116l.009.051c.006.037.012.074.017.112,0,.017,0,.034.007.051,0,.039.008.078.011.117,0,.015,0,.03,0,.045,0,.054.005.108.005.162a2.8,2.8,0,0,1-.015.291s0,.009,0,.013c0,.043-.01.086-.017.129,0,.018-.006.035-.009.052s-.01.058-.015.086a2.8,2.8,0,0,1-.479,1.079,1.407,1.407,0,0,0-.231.231Zm-5.986-12.363a2.728,2.728,0,0,0-1.371-2.383l-6.039-3.5a2.748,2.748,0,0,0-4.126,2.383v7.009a2.742,2.742,0,0,0,4.126,2.383l6.039-3.5a2.727,2.727,0,0,0,1.371-2.383Zm-8.723,3.4v-6.792l5.852,3.4Zm20.259-12.752V319.07a1.407,1.407,0,1,1-2.814,0V308.589a2.817,2.817,0,0,0-2.814-2.814H709.628a2.817,2.817,0,0,0-2.814,2.814v18.43a2.817,2.817,0,0,0,2.814,2.814h11.114a1.407,1.407,0,1,1,0,2.814H709.628A5.634,5.634,0,0,1,704,327.019v-18.43a5.634,5.634,0,0,1,5.628-5.628h24.761a5.634,5.634,0,0,1,5.627,5.628Zm0,0" transform="translate(-704 -302.893)" fill="#fff"/>
    </g>
  </g>
</svg>
