<svg xmlns="http://www.w3.org/2000/svg" xmlns:xlink="http://www.w3.org/1999/xlink" width="34.872" height="37.51" viewBox="0 0 34.872 37.51">
  <defs>
    <clipPath id="clip-path">
      <rect id="Rectangle_6" data-name="Rectangle 6" width="37.51" height="34.872" fill="#fff"/>
    </clipPath>
  </defs>
  <g id="Group_94" data-name="Group 94" transform="translate(34.872) rotate(90)" clip-path="url(#clip-path)">
    <path id="Path_425" data-name="Path 425" d="M37.51,5.861v7.766a1.465,1.465,0,1,1-2.93,0V5.861a2.934,2.934,0,0,0-2.93-2.93H5.861a2.934,2.934,0,0,0-2.93,2.93V26.374a2.934,2.934,0,0,0,2.93,2.93H16.117a1.465,1.465,0,0,1,0,2.93H5.861A5.867,5.867,0,0,1,0,26.374V5.861A5.868,5.868,0,0,1,5.861,0H31.649A5.867,5.867,0,0,1,37.51,5.861ZM6.146,23.878A1.465,1.465,0,0,0,8.2,23.6l2.081-2.742,3.866,4.89A1.465,1.465,0,0,0,15.3,26.3h0a1.466,1.466,0,0,0,1.15-.559L27.719,11.42l2.286,2.772a1.465,1.465,0,0,0,2.261-1.864L28.823,8.152a1.465,1.465,0,0,0-2.282.026L15.293,22.47l-3.887-4.917a1.465,1.465,0,0,0-2.317.023L5.865,21.825a1.465,1.465,0,0,0,.281,2.053ZM5.861,9.67a4.4,4.4,0,1,1,4.4,4.4,4.4,4.4,0,0,1-4.4-4.4Zm2.93,0a1.465,1.465,0,1,0,1.465-1.465A1.467,1.467,0,0,0,8.791,9.67Zm27.431,8.907a4.4,4.4,0,0,1,0,6.216l-8.027,8.012a1.462,1.462,0,0,1-.644.375l-5.914,1.638a1.465,1.465,0,0,1-1.793-1.838L21.6,27.214a1.463,1.463,0,0,1,.367-.611l8.044-8.027a4.4,4.4,0,0,1,6.215,0Zm-4.429,6.5L29.721,23l-5.428,5.416-.871,2.867L26.4,30.46Zm2.357-4.425a1.466,1.466,0,0,0-2.072,0l-.283.282L33.867,23l.284-.283a1.466,1.466,0,0,0,0-2.071Zm0,0" transform="translate(0 0)" fill="#fff"/>
  </g>
</svg>
